<svg xmlns="http://www.w3.org/2000/svg" viewBox="0 0 512 512"  xmlns:v="https://vecta.io/nano"><path d="M446 16H66C29.607 16 0 45.607 0 82v348c0 36.393 29.607 66 66 66h334c19.75 0 38.318-7.691 52.284-21.657l38.059-38.059C504.309 422.319 512 403.75 512 384V82c0-36.393-29.607-66-66-66zM66 48h380c18.748 0 34 15.252 34 34v46H32V82c0-18.748 15.252-34 34-34zM32 430V160h448v208h-50c-25.364 0-46 20.636-46 46v50H66c-18.748 0-34-15.252-34-34zm435.716-16.343l-38.059 38.059c-3.977 3.976-8.61 7.056-13.657 9.137V414a14.02 14.02 0 0 1 14-14h46.853c-2.082 5.046-5.161 9.681-9.137 13.657zM400 224c0-8.836-7.163-16-16-16H128c-8.837 0-16 7.164-16 16s7.163 16 16 16h256c8.837 0 16-7.164 16-16zm-48 64H160c-8.837 0-16 7.164-16 16s7.163 16 16 16h192c8.837 0 16-7.164 16-16s-7.163-16-16-16z"/></svg>
